<svg width="110" height="25" viewBox="0 0 110 25" fill="none" xmlns="http://www.w3.org/2000/svg">
<g clip-path="url(#clip0_1_63)">
<path fill-rule="evenodd" clip-rule="evenodd" d="M0.413391 4.63468C0.413391 3.2995 0.413391 2.63191 0.657717 2.11535C0.909438 1.58316 1.33791 1.15471 1.87013 0.903004C2.38672 0.658691 3.05434 0.658691 4.3896 0.658691C5.72486 0.658691 6.39249 0.658691 6.90909 0.903004C7.44128 1.15471 7.86976 1.58316 8.12151 2.11535C8.3658 2.63191 8.3658 3.2995 8.3658 4.63468V12.8527C8.3658 13.4141 8.3658 13.6949 8.30778 13.9619C8.25632 14.1988 8.17121 14.4271 8.05517 14.6399C7.92431 14.8798 7.74066 15.0921 7.37329 15.5166L5.77646 17.3622C4.11828 19.2785 3.28919 20.2367 2.56757 20.3304C1.94242 20.4115 1.31753 20.1787 0.89784 19.7083C0.413391 19.1654 0.413391 17.8983 0.413391 15.3642V4.63468ZM9.95628 4.7301C9.95628 3.30497 9.95628 2.59241 10.2337 2.04809C10.4776 1.56928 10.8669 1.18 11.3458 0.93604C11.8901 0.658691 12.6027 0.658691 14.0279 0.658691H14.1552C15.5804 0.658691 16.293 0.658691 16.8373 0.93604C17.3162 1.18 17.7055 1.56928 17.9494 2.04809C18.2268 2.59241 18.2268 3.30497 18.2268 4.7301V10.5828C18.2268 12.0079 18.2268 12.7205 17.9494 13.2648C17.7055 13.7436 17.3162 14.1329 16.8373 14.3768C16.293 14.6541 15.5804 14.6541 14.1552 14.6541H14.0279C12.6027 14.6541 11.8901 14.6541 11.3458 14.3768C10.8669 14.1329 10.4776 13.7436 10.2337 13.2648C9.95628 12.7205 9.95628 12.0079 9.95628 10.5828V4.7301ZM8.77727 16.3394C8.51202 16.5123 8.28925 16.7535 7.84376 17.2359L6.73625 18.4354C5.24057 20.0552 4.49273 20.865 4.45773 21.5553C4.42734 22.1547 4.68073 22.7335 5.14178 23.1178C5.67268 23.5604 6.77507 23.5604 8.97987 23.5604H14.4096C15.5954 23.5604 16.1883 23.5604 16.6559 23.3667C17.2794 23.1084 17.7748 22.613 18.0331 21.9896C18.2268 21.5219 18.2268 20.9291 18.2268 19.7435C18.2268 18.5578 18.2268 17.9649 18.0331 17.4973C17.7748 16.8738 17.2794 16.3784 16.6559 16.1202C16.1883 15.9265 15.5954 15.9265 14.4096 15.9265H10.8352C10.1786 15.9265 9.85026 15.9265 9.54329 16.0041C9.27118 16.0729 9.01238 16.1862 8.77727 16.3394Z" fill="black"/>
<path d="M23.3163 23.245V0.792358H33.4086C34.7799 0.792358 35.9691 1.02758 36.9762 1.49801C38.0047 1.94707 38.7975 2.59926 39.3546 3.4546C39.9332 4.28856 40.2224 5.29358 40.2224 6.46967V6.79044C40.2224 7.81685 40.0296 8.66149 39.6439 9.32438C39.2582 9.96588 38.7975 10.4684 38.2618 10.8319C37.7476 11.174 37.2547 11.42 36.7834 11.5696V12.147C37.2547 12.2753 37.769 12.5212 38.3261 12.8847C38.8832 13.2269 39.3546 13.7294 39.7403 14.3923C40.1474 15.0551 40.351 15.9212 40.351 16.9903V17.3111C40.351 18.5513 40.0617 19.6205 39.4832 20.5186C38.9046 21.3953 38.1011 22.0689 37.0726 22.5393C36.0655 23.0098 34.8871 23.245 33.5372 23.245H23.3163ZM27.5589 19.396H33.0229C33.9443 19.396 34.6835 19.1714 35.2406 18.7224C35.8191 18.2733 36.1084 17.6318 36.1084 16.7979V16.4771C36.1084 15.6432 35.8299 15.0017 35.2727 14.5526C34.7156 14.1036 33.9657 13.879 33.0229 13.879H27.5589V19.396ZM27.5589 10.03H32.9586C33.8371 10.03 34.5549 9.80551 35.112 9.35645C35.6906 8.9074 35.9798 8.28728 35.9798 7.4961V7.17534C35.9798 6.36275 35.7013 5.74263 35.1442 5.31496C34.5871 4.86591 33.8585 4.64138 32.9586 4.64138H27.5589V10.03Z" fill="black"/>
<path d="M47.1832 23.6931C46.0475 23.6931 45.0297 23.5007 44.1298 23.1158C43.2298 22.7095 42.512 22.1321 41.9763 21.3837C41.4621 20.6139 41.205 19.6837 41.205 18.5932C41.205 17.5026 41.4621 16.5938 41.9763 15.8668C42.512 15.1184 43.2406 14.5624 44.1619 14.1989C45.1047 13.814 46.1761 13.6215 47.376 13.6215H51.7471V12.7234C51.7471 11.975 51.5114 11.3656 51.0401 10.8951C50.5686 10.4033 49.8187 10.1574 48.7902 10.1574C47.7831 10.1574 47.0332 10.3926 46.5404 10.8631C46.0475 11.3121 45.7261 11.9002 45.5761 12.6272L41.8478 11.3763C42.1049 10.5637 42.512 9.82596 43.0691 9.16308C43.6477 8.47881 44.4083 7.93353 45.3511 7.52725C46.3153 7.09958 47.4831 6.88574 48.8545 6.88574C50.9543 6.88574 52.6149 7.40964 53.8363 8.45742C55.0576 9.50521 55.6683 11.0234 55.6683 13.0121V18.946C55.6683 19.5875 55.9683 19.9082 56.5683 19.9082H57.8539V23.2441H55.154C54.3612 23.2441 53.7077 23.0516 53.1935 22.6667C52.6792 22.2818 52.4221 21.7686 52.4221 21.1271V21.095H51.8114C51.7257 21.3516 51.5329 21.6938 51.2329 22.1214C50.9329 22.5277 50.4615 22.8912 49.8187 23.212C49.1759 23.5327 48.2974 23.6931 47.1832 23.6931ZM47.8903 20.4214C49.0259 20.4214 49.9473 20.1114 50.6543 19.4913C51.3829 18.8498 51.7471 18.0051 51.7471 16.9573V16.6366H47.6652C46.9153 16.6366 46.3261 16.797 45.8975 17.1177C45.469 17.4385 45.2547 17.8875 45.2547 18.4649C45.2547 19.0422 45.4797 19.5126 45.9297 19.8762C46.3796 20.2397 47.0332 20.4214 47.8903 20.4214Z" fill="black"/>
<path d="M59.16 23.2427V7.33344H63.1457V9.12964H63.724C63.9597 8.48814 64.3455 8.01771 64.8813 7.71834C65.4384 7.41897 66.0812 7.26929 66.8096 7.26929H68.7877V9.0655V10.8617H66.7452C65.7167 10.8617 64.8704 11.1397 64.2064 11.6957C63.5418 12.2302 63.2094 13.0642 63.2094 14.1975V23.2427H59.16Z" fill="black"/>
<path d="M90.1636 23.6931C88.5779 23.6931 87.1746 23.3617 85.9535 22.6988C84.7536 22.0145 83.8108 21.0629 83.1249 19.8441C82.4609 18.6039 82.1285 17.1498 82.1285 15.4819V15.097C82.1285 13.4291 82.4609 11.9857 83.1249 10.7668C83.7895 9.52659 84.7214 8.57503 85.9213 7.91215C87.1211 7.22788 88.5142 6.88574 90.0998 6.88574C91.6635 6.88574 93.0244 7.23857 94.1817 7.94422C95.3384 8.62849 96.2387 9.59074 96.8815 10.831C97.5242 12.0498 97.8456 13.4718 97.8456 15.097V16.4762H86.2427C86.2858 17.5668 86.6928 18.4542 87.4638 19.1384C88.2353 19.8227 89.1782 20.1648 90.2924 20.1648C91.4278 20.1648 92.2638 19.9189 92.7996 19.4271C93.3348 18.9353 93.7425 18.39 94.0207 17.7913L97.3311 19.5233C97.0316 20.0793 96.5917 20.6887 96.0134 21.3516C95.4563 21.9931 94.7066 22.5491 93.7637 23.0195C92.8208 23.4686 91.621 23.6931 90.1636 23.6931ZM86.2748 13.4611H93.7315C93.6459 12.5417 93.271 11.8039 92.6064 11.248C91.9636 10.692 91.1174 10.414 90.0676 10.414C88.9747 10.414 88.1071 10.692 87.4638 11.248C86.821 11.8039 86.4249 12.5417 86.2748 13.4611Z" fill="black"/>
<path d="M99.0164 23.2427V7.33344H103.002V9.12964H103.581C103.816 8.48814 104.202 8.01771 104.738 7.71834C105.295 7.41897 105.938 7.26929 106.666 7.26929H108.595V10.8617H106.602C105.573 10.8617 104.727 11.1397 104.063 11.6957C103.398 12.2302 103.066 13.0642 103.066 14.1975V23.2427H99.0164Z" fill="black"/>
<path d="M76.6274 23.2475C75.5776 23.2475 74.7204 22.9268 74.0564 22.2853C73.4137 21.6224 73.0923 20.7457 73.0923 19.6551V10.8665H69.9775V9.07033V7.27413H73.0923V2.39868H77.142V7.33828H81.5131V10.8665H77.142V18.9495C77.142 19.591 77.4415 19.9117 78.0417 19.9117H81.1273V23.2475H76.6274Z" fill="black"/>
</g>
<defs>
<clipPath id="clip0_1_63">
<rect width="108.746" height="23.6932" fill="white" transform="translate(0.413452 0.657227)"/>
</clipPath>
</defs>
</svg>
