<svg width="223" height="223" viewBox="0 0 223 223" fill="none" xmlns="http://www.w3.org/2000/svg">
<path d="M111.459 74.6347L83.6626 90.8491V123.278L111.459 139.492L139.255 123.278V90.8491L111.459 74.6347ZM125.514 93.5361L111.338 101.801L97.2827 93.6009L111.459 85.3362L125.514 93.5361ZM92.8353 101.708L106.585 109.732V125.946L92.8353 117.932V101.708ZM115.758 126.289V109.917L130.082 101.56V117.932L115.758 126.289ZM28.0703 0.511597L0.274109 16.726V49.1549L28.0703 65.3693L55.8664 49.1549V16.726L28.0703 0.511597ZM42.1259 19.413L27.9498 27.6777L13.8942 19.4778L28.0703 11.2131L42.1259 19.413ZM9.44684 27.5758L23.1967 35.5996V51.814L9.44684 43.818V27.5758ZM32.3694 52.1569V35.7942L46.6937 27.4368V43.8088L32.3694 52.1569ZM28.0703 158.023L0.274109 174.238V206.666L28.0703 222.881L55.8664 206.666V174.238L28.0703 158.023ZM42.1259 176.925L27.9498 185.189L13.8942 176.989L28.0703 168.725L42.1259 176.925ZM9.44684 185.097L23.1967 193.12V209.335L9.44684 201.33V185.097ZM32.3694 209.678V193.306L46.6937 184.948V201.32L32.3694 209.678ZM194.847 0.511597L167.051 16.726V49.1549L194.847 65.3693L222.643 49.1549V16.726L194.847 0.511597ZM208.903 19.413L194.727 27.6777L180.671 19.4778L194.847 11.2131L208.903 19.413ZM176.224 27.5851L189.974 35.6089V51.8233L176.224 43.8088V27.5851ZM199.146 52.1661V35.7942L213.471 27.4368V43.8088L199.146 52.1661ZM194.847 158.023L167.051 174.238V206.666L194.847 222.881L222.643 206.666V174.238L194.847 158.023ZM208.903 176.925L194.727 185.189L180.671 176.989L194.847 168.725L208.903 176.925ZM176.224 185.097L189.974 193.12V209.335L176.224 201.32V185.097ZM199.146 209.678V193.306L213.471 184.948V201.32L199.146 209.678ZM83.6626 28.3078H139.255V37.5731H83.6626V28.3078ZM83.6626 185.819H139.255V195.085H83.6626V185.819ZM32.703 83.9001V139.492H23.4376V83.9001H32.703ZM67.8466 82.3064L48.1947 62.6545L54.7453 56.1039L74.3972 75.7465L67.8466 82.3064ZM148.52 77.3495L168.172 57.6976L174.723 64.2482L155.071 83.9001L148.52 77.3495ZM75.5832 138.371L55.9313 158.023L49.3807 151.473L69.0325 131.821L75.5832 138.371ZM156.665 131.422L176.316 151.074L169.766 157.625L150.114 137.973L156.665 131.422ZM199.48 83.9001V139.492H190.215V83.9001H199.48Z" fill="black"/>
</svg>
